<svg width="196" height="131" viewBox="0 0 196 131" fill="none" xmlns="http://www.w3.org/2000/svg">
<path d="M101.421 0.0600019C125.201 -1.29 139.841 19.64 136.451 42.09C130.581 81.04 67.6415 85.78 59.7415 46.43C54.5615 20.59 77.3815 1.42 101.421 0.0600019ZM99.4215 3.06C77.7415 4.67 59.8215 20.91 62.0215 43.66C63.0915 54.7 72.2215 65.08 82.9215 67.76C87.5515 68.92 89.7215 69.06 94.4215 70.76C98.6515 72.29 106.531 70.47 110.781 68.92C132.071 61.14 140.421 36.42 128.731 16.95C121.951 5.65 112.381 2.1 99.4215 3.06Z" fill="#F5928C"/>
<path d="M102.021 27.41C105.851 23.84 107.981 18.4 111.311 14.45C121.241 2.66 129.901 31.45 119.661 35.3L110.521 36.9C119.491 38.03 127.671 39.03 122.771 50.41C116.211 65.62 107.171 48.49 99.5215 44.41C101.161 49.91 104.351 61.99 96.1315 63.28C91.9615 63.93 84.3915 63.92 83.6115 58.53C82.9015 53.66 91.4515 44.51 93.5115 39.92C87.0115 41.45 76.3415 48.73 70.0315 44.64C63.7215 40.55 66.0415 26.85 73.7415 25.9C79.8515 25.15 84.4815 28.67 90.0015 30.41L84.1215 20.05C80.5815 10.87 91.7315 5.33 99.5415 7.13C107.751 9.02 102.811 21.85 102.011 27.41H102.021ZM98.5215 33.91L102.411 14.28C101.231 5.29 87.6215 9.19 85.8915 15.07C84.8915 18.48 90.6815 26.52 93.0115 29.18C93.6015 29.85 97.9515 34.44 98.5215 33.92V33.91ZM101.021 35.91L117.651 33.8C123.711 32.73 121.871 21.57 119.601 17.58C115.581 10.5 113.411 15.62 110.111 20.26C106.621 25.16 103.831 30.6 101.021 35.91ZM95.0215 36.91C94.5615 35.79 93.4915 35.25 92.5415 34.65C90.4615 33.35 79.2815 28.23 77.2415 27.94C68.5215 26.7 66.4215 39.54 71.3415 42.34C74.5315 44.15 79.1015 42.48 82.4115 41.54C86.7315 40.31 90.7915 38.35 95.0315 36.9L95.0215 36.91ZM99.5215 39.42C102.081 42.22 104.701 45.12 107.511 47.67C109.051 49.07 113.661 53.4 115.161 54.04C119.551 55.94 124.331 43.95 119.481 41.2C116.731 39.64 101.291 37.67 99.5215 39.42ZM95.7715 40.91C94.9515 41.11 86.9715 53.63 86.4915 55.13C84.4915 61.3 91.2015 61.77 95.7615 60.9C102.161 59.68 96.9315 45.89 96.9415 41.75C96.7715 41.25 96.3415 40.78 95.7815 40.92L95.7715 40.91Z" fill="#F5928C"/>
<path d="M76.9015 50.01C82.7115 49.51 78.8615 58.4 74.8915 57.34C71.4615 56.42 73.2815 50.32 76.9015 50.01ZM76.7715 51.92C74.8215 51.92 74.4015 57.49 77.9915 53.6C78.1215 53.09 76.9215 51.92 76.7715 51.92Z" fill="#F5928C"/>
<path d="M104.871 60.01C107.461 59.24 110.031 60.66 108.451 63.6C105.271 69.51 101.141 61.12 104.871 60.01Z" fill="#F5928C"/>
<path d="M126.361 33.54C129.441 33.46 130.611 38.35 127.251 38.92C122.721 39.68 122.341 33.65 126.361 33.54Z" fill="#F5928C"/>
<path d="M74.1515 21.79C71.7715 19.35 77.1815 15.81 78.7915 18.41C80.2015 20.69 75.5915 23.27 74.1515 21.79Z" fill="#F5928C"/>
<path d="M91.6889 97.93C93.8389 100.09 89.5889 107.7 91.0589 107.81C93.3389 107.61 95.0589 105.8 96.9689 104.72L105.299 98.31C105.839 98.85 103.279 101.13 102.809 101.56C100.869 103.36 94.4989 108.42 92.1889 108.98C86.9589 110.25 90.6989 102.84 90.8289 100.57C90.8789 99.69 91.2189 98.63 90.0589 98.8C85.6989 99.44 80.9689 105.76 77.8089 108.56C76.0089 109.34 77.2489 104.92 77.4589 104.2C77.6689 103.48 79.5689 98.5 79.8189 98.31C80.1789 98.04 81.2789 98.73 81.2989 99.06C81.3389 99.88 78.2189 103.91 79.0589 105.31C81.1089 103.21 87.2589 97.31 90.0289 97.33C90.4789 97.33 91.3789 97.61 91.6989 97.93H91.6889Z" fill="#F5928C"/>
<path d="M38.5589 98.31C34.4689 101.06 30.1089 103.54 25.3089 104.8C25.0189 104.51 28.7689 98.51 25.7989 97.03C22.7089 95.5 16.6589 102.57 14.3089 104.3C14.5589 102.51 15.6189 100.82 15.7589 99C15.7989 98.5 16.0089 97.31 15.0589 97.8C14.5289 98.07 11.5889 106.9 10.5589 108.8C8.12886 113.32 -0.311141 123.22 0.00885926 128.07C0.108859 129.6 1.79886 130.83 3.29886 130.07C6.69886 128.34 11.0989 110.77 14.8089 106.07C16.0089 104.55 23.7689 97.23 25.2889 98.31C26.7489 99.35 24.2889 103.66 22.7589 104.52C20.7889 105.62 14.8389 104.94 16.5389 108.31C17.8989 111.01 22.0289 107.29 23.7989 106.56C26.4589 105.48 29.3089 105 31.9789 103.74C32.7989 103.35 38.5789 100.13 38.7889 99.8C38.8289 99.73 38.9789 98.31 38.5389 98.3L38.5589 98.31ZM4.57886 125.83C3.88886 127.11 3.01886 129.18 1.30886 128.81C0.258859 127.76 6.72886 115.41 8.79886 114.31C7.91886 117.96 6.36886 122.54 4.57886 125.83ZM19.6289 108.3C18.6089 108.57 17.6689 108.33 17.5189 107.77C17.3689 107.21 18.0689 106.53 19.0789 106.26C20.0989 105.99 21.0389 106.23 21.1889 106.79C21.3389 107.35 20.6389 108.03 19.6289 108.3Z" fill="#F5928C"/>
<path d="M76.3489 100.11C74.3489 101.69 68.0489 109.05 65.2689 107.1C63.0289 105.52 68.2389 99.25 67.2989 98.32C63.9189 98.96 60.5489 96.26 57.5489 99.32C57.1689 99.47 57.3989 98.32 57.0489 98.29C55.8089 98.2 49.9089 103.94 48.2689 105.03C44.0789 107.82 38.8389 110.37 39.8489 102.6C40.5789 96.99 43.4989 97.45 47.2689 95.02C52.4989 91.63 59.8089 86.02 62.7089 80.46C64.5789 76.88 66.7389 69.4 60.0289 71.78C53.1289 74.23 41.0489 92.89 38.8089 99.8C38.1589 101.8 37.5389 106.12 39.0089 107.85C42.4689 111.9 50.2089 104.86 53.2989 102.8C50.4589 114.16 59.6389 106.32 63.5489 102.8C63.5989 104.7 62.4489 107.49 64.8189 108.55C68.3489 110.13 76.9089 102.16 78.8089 99.06C78.2189 98.38 76.8289 99.73 76.3489 100.1V100.11ZM54.0489 78.3C55.3789 76.92 63.1489 69.42 63.3489 74.55C63.6389 81.93 49.4689 93.51 42.8089 95.8C45.3689 89.7 49.4589 83.09 54.0489 78.3ZM55.5389 107.33C51.2689 107.84 56.5089 100.19 60.1689 99.43C61.3689 99.18 62.5989 99.34 63.7989 99.32C64.9189 100.29 56.6989 107.19 55.5389 107.33Z" fill="#F5928C"/>
<path d="M142.549 98.81C140.139 98.63 133.669 108 129.569 107.34C125.809 106.74 131.969 99.51 130.799 98.32C128.219 99.08 127.009 97.39 124.079 97.85C122.739 98.06 121.779 99.13 121.039 99.32C120.719 99.4 121.059 97.97 120.059 98.32C117.989 100.77 112.129 107.74 109.039 107.86C104.959 108.01 105.809 104.47 106.549 101.82C107.029 100.12 111.739 89.04 112.549 88.32C113.319 87.63 118.329 87.63 120.049 87.31C120.869 87.16 120.909 87.64 120.799 86.33H113.299C114.069 84.08 116.109 81.13 116.699 78.98C116.899 78.24 117.079 77.63 116.049 77.83C114.759 78.46 112.539 85.68 111.459 86.37C109.749 87.46 103.369 86.32 102.289 87.34C101.549 88.04 102.339 88.25 103.029 88.34C105.489 88.65 108.349 88.25 110.789 87.84C109.019 93.7 103.489 100.6 104.899 106.98C105.509 109.75 108.779 109.5 110.889 108.68C113.029 107.85 114.149 105.66 116.289 104.84C116.469 113.87 123.969 104.74 127.289 102.84C125.739 112.43 132.179 108.47 136.749 105.04C137.549 104.44 142.609 100.2 142.799 99.84C142.879 99.68 142.949 98.87 142.549 98.84V98.81ZM119.779 107.04C119.109 107.31 118.519 107.41 117.809 107.31C117.609 102.42 122.529 98.62 127.299 99.31C128.499 100.46 121.029 106.53 119.779 107.03V107.04Z" fill="#F5928C"/>
<path d="M176.559 98.82C173.059 100.18 170.119 106.46 164.519 107.28C163.089 107.49 159.419 107 159.799 105.07C159.979 104.19 166.859 104.43 167.299 100.02C167.759 95.38 161.949 98.29 159.639 98.86C157.359 101.37 142.429 113.71 143.509 103.81C144.269 96.84 148.539 96.89 153.379 93.63C158.169 90.41 165.349 84.17 167.559 78.81C169.619 73.82 168.959 69.27 162.649 72.4C156.449 75.48 144.879 93.18 142.809 99.81C137.829 115.71 154.109 107.06 159.069 100.81C160.389 100.71 159.579 101.02 159.419 101.66C157.059 111.23 164.469 109.75 170.269 106.01C171.459 105.24 176.899 100.5 177.309 99.55C177.569 98.95 177.169 98.58 176.569 98.81L176.559 98.82ZM162.959 98.98C164.399 98.38 165.869 98.61 166.239 99.5C166.609 100.39 165.739 101.6 164.299 102.2C162.859 102.8 161.389 102.57 161.019 101.68C160.649 100.79 161.519 99.58 162.959 98.98ZM165.179 72.9C165.759 72.8 166.299 72.66 166.839 73.02C169.529 74.98 163.119 83.63 161.559 85.31C160.219 86.76 147.949 96.94 146.809 95.8C148.609 89.99 159.339 73.89 165.179 72.89V72.9Z" fill="#F5928C"/>
<path d="M194.559 98.31C193.779 98.65 191.419 100.7 190.139 101.39C188.869 102.08 182.449 105.49 181.599 105.34C180.829 104.51 178.769 99.48 179.809 98.8C180.249 98.52 181.699 98.98 181.809 99.56C181.979 100.42 180.039 100.86 181.559 101.79C185.709 99.36 180.339 94.96 178.409 98.68C176.899 101.58 180.979 104.43 179.349 106.58C178.949 107.11 174.779 109.23 177.449 110.44C180.149 111.67 180.909 107.84 182.119 106.85C184.269 105.07 194.839 101.67 195.319 99.05C195.439 98.41 195.219 98.02 194.569 98.3L194.559 98.31ZM179.259 109.21C178.719 109.75 178.089 110 177.849 109.77C177.609 109.54 177.869 108.91 178.409 108.36C178.949 107.82 179.579 107.57 179.819 107.8C180.059 108.03 179.799 108.66 179.259 109.21Z" fill="#F5928C"/>
</svg>
