<svg id="Group_401" data-name="Group 401" xmlns="http://www.w3.org/2000/svg" xmlns:xlink="http://www.w3.org/1999/xlink" width="878.574" height="172.59" viewBox="0 0 878.574 172.59">
  <defs>
    <clipPath id="clip-path">
      <rect id="Rectangle_44" data-name="Rectangle 44" width="878.574" height="172.59" fill="none"/>
    </clipPath>
  </defs>
  <g id="Group_400" data-name="Group 400" clip-path="url(#clip-path)">
    <path id="Path_494" data-name="Path 494" d="M878.574,172.59H0V31.877C30.607,19.871,81.883,3.232,146.142.41c209.3-9.191,305.875,139.211,507.268,143.235,51.037,1.02,128.694-6.835,225.164-55.884Z" fill="#181a27"/>
    <path id="Path_495" data-name="Path 495" d="M878.574,141.495a473.556,473.556,0,0,1-210.118,15.046,474.143,474.143,0,0,1-208.489-87.05C504.51,93.851,611,143.725,745.833,126.449A448.325,448.325,0,0,0,878.574,87.761Z" fill="#3d1e29"/>
    <path id="Path_496" data-name="Path 496" d="M878.574,87.761A325.944,325.944,0,0,1,787.746,137.2c-53.312,18.63-95.2,17-170.773,13.056-208.653-10.878-268.479-18.185-355.824,1.989a591.445,591.445,0,0,0-68.78,20.348h686.2Z" fill="#af0933"/>
  </g>
</svg>
