<svg width="295" height="69" viewBox="0 0 295 69" fill="none" xmlns="http://www.w3.org/2000/svg">
<path d="M39.672 38.6652H32.7224L28.9953 29.6956H11.4418L7.64748 38.6652H0.983643L17.321 1.28233H23.3403L39.672 38.6652ZM20.1849 9.1013L13.8069 23.959H26.5573L20.1849 9.1013Z" fill="#2D3342"/>
<path d="M66.1761 26.7543H58.7948V38.6652H52.2767V1.56859H66.8934C75.4909 1.56859 81.0058 6.44633 81.0058 14.052C81.0058 22.3761 74.3475 26.7543 66.1761 26.7543ZM66.3946 7.52403H58.8004V20.8718H66.3946C71.3379 20.8718 74.4204 18.1439 74.4204 14.1979C74.4148 9.7468 71.265 7.52403 66.3946 7.52403Z" fill="#2D3342"/>
<path d="M107.947 26.7543H100.566V38.6652H94.0476V1.56859H108.664C117.335 1.56859 122.777 6.44633 122.777 14.052C122.777 22.3761 116.113 26.7543 107.947 26.7543ZM108.16 7.52403H100.566V20.8718H108.16C113.103 20.8718 116.186 18.1439 116.186 14.1979C116.113 9.7468 113.036 7.52403 108.16 7.52403Z" fill="#2D3342"/>
<path d="M181.742 1.56859H188.188V32.7098H207.675V38.6652H181.742V1.56859Z" fill="#2D3342"/>
<path d="M220.857 1.56859H227.38V32.7098H246.868V38.6652H220.857V1.56859Z" fill="#2D3342"/>
<path d="M275.524 39.3107C264.13 39.3107 256.182 30.6273 256.182 20.1534C256.182 9.67944 264.208 0.923096 275.597 0.923096C286.991 0.923096 294.938 9.60647 294.938 20.0804C294.938 30.56 286.912 39.3107 275.524 39.3107ZM275.524 6.87853C268.143 6.87853 263.059 12.761 263.059 20.0074C263.059 27.2539 268.288 33.2823 275.669 33.2823C283.051 33.2823 288.134 27.3998 288.134 20.1534C288.134 12.9069 282.899 6.87853 275.524 6.87853Z" fill="#2D3342"/>
<path d="M167.983 32.8557H135.886V38.6708H167.983V32.8557Z" fill="#AF1F36"/>
<path d="M157.811 17.2121H135.886V23.0273H157.811V17.2121Z" fill="#AF1F36"/>
<path d="M149.426 1.56859H135.886V7.38371H149.426V1.56859Z" fill="#AF1F36"/>
<path d="M136.654 60.3371H134.933V68.0158H136.654V60.3371Z" fill="#2D3342"/>
<path d="M150.699 60.3371H152.274L155.855 65.0689V60.3371H157.503V68.0102H156.068L152.346 63.1324V68.0102H150.699V60.3371Z" fill="#2D3342"/>
<path d="M173.336 61.8414H171.043V60.2642H177.348V61.8414H175.056V67.9372H173.336V61.8414Z" fill="#2D3342"/>
<path d="M190.889 60.3371H196.623V61.8414H192.537V63.4187H196.118V64.9286H192.537V66.5059H196.695V68.0102H190.889V60.3371Z" fill="#2D3342"/>
<path d="M210.376 60.3315H213.89C214.893 60.3315 215.611 60.6178 216.11 61.123C216.541 61.5552 216.754 62.1277 216.754 62.8462C216.754 64.0642 216.11 64.8556 215.106 65.2149L216.967 67.9428H215.034L213.386 65.5011H212.024V67.9428H210.303L210.376 60.3315ZM213.817 64.0642C214.675 64.0642 215.106 63.632 215.106 62.9865C215.106 62.268 214.608 61.9088 213.745 61.9088H212.097V64.1316H213.817V64.0642Z" fill="#2D3342"/>
<path d="M232.301 60.3371H230.581V68.0158H232.301V60.3371Z" fill="#2D3342"/>
<path d="M246.055 64.1372C246.055 61.9144 247.776 60.1912 250.141 60.1912C252.506 60.1912 254.154 61.9144 254.154 64.1372C254.154 66.2926 252.433 68.0831 250.068 68.0831C247.703 68.0831 246.055 66.3599 246.055 64.1372ZM252.433 64.1372C252.433 62.7732 251.503 61.6955 250.141 61.6955C248.779 61.6955 247.848 62.7732 247.848 64.0642C247.848 65.3552 248.779 66.4329 250.141 66.4329C251.503 66.5788 252.433 65.5011 252.433 64.1372Z" fill="#2D3342"/>
<path d="M267.907 60.3315H271.421C272.424 60.3315 273.142 60.6178 273.641 61.123C274.072 61.5552 274.285 62.1277 274.285 62.8462C274.285 64.0642 273.641 64.8556 272.637 65.2149L274.498 67.9428H272.565L270.917 65.5011H269.628V67.9428H267.907V60.3315ZM271.343 64.0642C272.2 64.0642 272.632 63.632 272.632 62.9865C272.632 62.268 272.133 61.9088 271.343 61.9088H269.695V64.1316H271.343V64.0642Z" fill="#2D3342"/>
</svg>
